<?xml version="1.0" encoding="utf-8"?>
<!-- Generator: Adobe Illustrator 16.0.3, SVG Export Plug-In . SVG Version: 6.00 Build 0)  -->
<!DOCTYPE svg PUBLIC "-//W3C//DTD SVG 1.1//EN" "http://www.w3.org/Graphics/SVG/1.1/DTD/svg11.dtd">
<svg version="1.1" id="Слой_1" xmlns="http://www.w3.org/2000/svg" xmlns:xlink="http://www.w3.org/1999/xlink" x="0px" y="0px"
	 width="300px" height="300px" viewBox="0 0 300 300" enable-background="new 0 0 300 300" xml:space="preserve">
<title>card-img-square (2)</title>
<g id="Home">
	<g id="Econlib-Home---Desktop-Wide">
		<g id="Subnav">
			<g id="EconLog">
				<g id="EconLo">
					<path id="Fill-1" fill="#FFFFFF" d="M150.779,148.37v-15.26c1.437-0.381,2.292-1.854,1.91-3.29
						c-0.381-1.436-1.854-2.291-3.29-1.91c-1.436,0.381-2.291,1.854-1.91,3.29c0.248,0.933,0.977,1.662,1.91,1.91v15.26
						c-3.07-6.19-10.13-17.47-11.82-20.15c4.57-3.66,6.09-13.07,6.4-15.61h12.22c0.319,2.54,1.829,12,6.399,15.61
						c-1.68,2.68-8.74,14-11.88,20.15 M163.91,127.45c-5.131-3.35-6.4-15.53-6.4-15.61c-0.035-0.354-0.334-0.622-0.689-0.62h-13.46
						c-0.355-0.001-0.654,0.267-0.69,0.62c0,0.13-1.29,12.25-6.4,15.61c-0.296,0.203-0.387,0.598-0.21,0.91l0,0
						c0.13,0.19,12.38,19.5,13.37,23.55c-0.002,0.023-0.002,0.047,0,0.07l0,0l0.06,0.109l0,0l0.06,0.07l0,0l0.06,0.05h0.75
						l0.06-0.05l0,0l0.06-0.07l0,0l0.06-0.109l0,0c1-4,13.25-23.38,13.37-23.55c0.179-0.31,0.092-0.705-0.2-0.91l0,0"/>
					<path id="Fill-3" fill="#FFFFFF" d="M154.37,114.77h-8.57c-0.381-0.044-0.726,0.229-0.77,0.61
						c-0.044,0.381,0.229,0.726,0.61,0.77l0,0h8.709c0.381,0.044,0.727-0.229,0.771-0.61s-0.229-0.726-0.61-0.77h-0.16"/>
					<path id="Fill-5" fill="#FFFFFF" d="M154.37,117.7h-8.57c-0.381-0.001-0.69,0.308-0.691,0.688c0,0.381,0.308,0.69,0.689,0.691
						c0.001,0,0.002,0,0.002,0h8.55c0.381,0,0.691-0.308,0.691-0.688c0.001-0.381-0.307-0.691-0.688-0.691c-0.001,0-0.001,0-0.003,0
						"/>
				</g>
			</g>
		</g>
	</g>
</g>
<path fill="#FFFFFF" d="M105.42,177.38c0.004-0.13,0.087-0.245,0.21-0.29c0.208-0.088,0.426-0.148,0.65-0.18
	c0.538-0.061,1.047-0.272,1.47-0.61c0.308-0.374,0.449-0.858,0.39-1.34v-11.69c0.043-0.467-0.088-0.934-0.37-1.31
	c-0.396-0.34-0.89-0.546-1.41-0.59c-0.573-0.106-0.86-0.28-0.86-0.521s0.25-0.336,0.75-0.289h10.41c0.293,0,0.45,0.076,0.47,0.229
	s0.097,0.544,0.23,1.17c0.101,0.505,0.157,1.017,0.17,1.53c0,0.26-0.12,0.39-0.36,0.39c-0.058,0.022-0.122,0.022-0.18,0
	c-0.048-0.062-0.082-0.134-0.1-0.21c-0.043-0.234-0.113-0.463-0.21-0.68c-0.06-0.275-0.183-0.532-0.36-0.75
	c-0.447-0.48-1.084-0.736-1.74-0.7h-3.44c-0.221,0.019-0.431,0.106-0.6,0.25c-0.204,0.124-0.331,0.342-0.34,0.58v5.489
	c-0.004,0.146,0.046,0.289,0.14,0.4c0.078,0.105,0.2,0.168,0.33,0.17h2.57c0.353,0.033,0.707-0.059,1-0.26
	c0.247-0.285,0.416-0.63,0.49-1c0.107-0.38,0.263-0.57,0.47-0.57c0.086,0.01,0.165,0.053,0.22,0.12c0.08,0.079,0.123,0.188,0.12,0.3
	v3.82c0,0.293-0.077,0.44-0.23,0.44c-0.26,0-0.46-0.276-0.6-0.83c-0.062-0.333-0.21-0.644-0.43-0.9
	c-0.207-0.195-0.486-0.294-0.77-0.27h-2.37c-0.238-0.021-0.476,0.024-0.69,0.13c-0.151,0.141-0.222,0.346-0.19,0.55v5
	c-0.173,0.788,0.324,1.566,1.112,1.74c0.207,0.046,0.421,0.046,0.628,0h1.92c0.49-0.001,0.979-0.048,1.46-0.14
	c0.352-0.051,0.691-0.166,1-0.341c0.278-0.191,0.518-0.433,0.71-0.71c0.284-0.413,0.541-0.844,0.77-1.29
	c0.12-0.229,0.24-0.34,0.36-0.34c0.188,0.016,0.335,0.171,0.34,0.36c-0.049,0.481-0.146,0.957-0.29,1.42
	c-0.133,0.545-0.307,1.08-0.52,1.6l-0.08,0.18c-0.027,0.07-0.068,0.136-0.12,0.19c-0.046,0.042-0.107,0.063-0.17,0.06l-4.58-0.08
	c-1.2-0.06-2.383-0.09-3.55-0.09c-0.451,0-0.902,0.026-1.35,0.08c-0.887,0.054-1.433,0.08-1.64,0.08
	C105.7,177.674,105.42,177.573,105.42,177.38z"/>
<path fill="#FFFFFF" d="M121.62,177.27c-0.706-0.447-1.279-1.076-1.66-1.819c-0.411-0.801-0.617-1.69-0.6-2.591
	c-0.002-1.045,0.252-2.075,0.74-3c0.466-0.895,1.155-1.656,2-2.209c0.817-0.543,1.779-0.828,2.76-0.82
	c1.072-0.026,2.124,0.293,3,0.91c0.176,0.104,0.291,0.286,0.31,0.49c-0.027,0.277-0.168,0.531-0.39,0.699
	c-0.189,0.209-0.45,0.337-0.73,0.36c-0.094-0.002-0.185-0.034-0.26-0.09l-0.36-0.23c-0.42-0.32-0.865-0.608-1.33-0.86
	c-0.34-0.207-0.724-0.33-1.12-0.359c-0.834,0.029-1.592,0.492-2,1.22c-0.563,0.93-0.837,2.005-0.79,3.091
	c-0.009,0.764,0.17,1.52,0.52,2.199c0.327,0.643,0.821,1.186,1.43,1.57c0.598,0.379,1.292,0.576,2,0.57
	c0.455,0.021,0.909-0.058,1.33-0.23c0.438-0.219,0.834-0.513,1.17-0.87c0.065-0.077,0.159-0.124,0.26-0.13
	c0.083-0.003,0.161,0.034,0.21,0.1c0.025,0.082,0.025,0.169,0,0.25c-0.048,0.303-0.184,0.584-0.39,0.811
	c-0.427,0.527-0.981,0.936-1.61,1.189c-0.684,0.287-1.418,0.43-2.16,0.42C123.125,177.943,122.317,177.711,121.62,177.27z"/>
<path fill="#FFFFFF" d="M132,177.23c-0.765-0.45-1.397-1.096-1.83-1.871c-0.461-0.816-0.696-1.741-0.68-2.68
	c-0.009-0.963,0.225-1.912,0.68-2.76c0.499-0.906,1.213-1.676,2.08-2.24c0.863-0.577,1.882-0.877,2.92-0.859
	c0.949-0.008,1.881,0.24,2.7,0.72c0.801,0.462,1.47,1.123,1.94,1.92c0.442,0.759,0.677,1.622,0.68,2.5
	c0.019,1.011-0.201,2.011-0.64,2.92c-0.448,0.898-1.142,1.651-2,2.17c-0.969,0.567-2.078,0.852-3.2,0.82
	C133.726,177.896,132.811,177.676,132,177.23z M137.84,175.7c0.402-0.972,0.58-2.021,0.52-3.07c0-0.829-0.159-1.651-0.47-2.42
	c-0.276-0.728-0.722-1.38-1.3-1.899c-0.519-0.474-1.197-0.734-1.9-0.73c-0.444-0.012-0.887,0.066-1.3,0.23
	c-0.398,0.178-0.743,0.457-1,0.81c-0.328,0.433-0.55,0.937-0.65,1.47c-0.128,0.659-0.189,1.329-0.18,2
	c-0.004,0.843,0.155,1.678,0.47,2.46c0.276,0.717,0.718,1.358,1.29,1.87c1.26,1.076,3.154,0.927,4.23-0.333
	c0.104-0.121,0.197-0.251,0.28-0.387H137.84z"/>
<path fill="#FFFFFF" d="M142,177.33c-0.012-0.102,0.04-0.201,0.13-0.25c0.152-0.068,0.31-0.125,0.47-0.17
	c0.294-0.061,0.575-0.172,0.83-0.33c0.205-0.154,0.314-0.404,0.29-0.66v-5.58c0.019-0.431-0.042-0.861-0.18-1.27
	c-0.146-0.316-0.438-0.541-0.78-0.601c-0.158-0.034-0.268-0.178-0.26-0.34c0-0.19,0.08-0.29,0.23-0.31
	c0.477-0.114,0.938-0.289,1.37-0.521c0.429-0.245,0.843-0.515,1.24-0.81c0.082-0.07,0.183-0.115,0.29-0.131
	c0.09,0,0.13,0.061,0.13,0.181v0.55c0.014,0.17,0.014,0.34,0,0.51v0.92c0.582-0.554,1.26-0.998,2-1.31
	c0.71-0.294,1.472-0.439,2.24-0.431c0.814-0.012,1.588,0.358,2.09,1c0.57,0.734,0.867,1.643,0.84,2.57V176
	c-0.018,0.232,0.084,0.459,0.271,0.6c0.269,0.149,0.554,0.267,0.85,0.351c0.16,0.046,0.314,0.109,0.46,0.19
	c0.092,0.057,0.146,0.16,0.141,0.27c0,0.16-0.17,0.23-0.521,0.23c-0.375,0.006-0.749-0.021-1.12-0.08h-1
	c-0.332-0.023-0.667-0.023-1,0c-0.377,0.059-0.758,0.086-1.14,0.08c-0.35,0-0.52-0.08-0.52-0.23c-0.006-0.109,0.048-0.213,0.14-0.27
	c0.142-0.08,0.293-0.145,0.45-0.19c0.296-0.084,0.582-0.201,0.85-0.351c0.198-0.148,0.302-0.393,0.271-0.64v-5.45
	c0.033-0.652-0.197-1.29-0.641-1.77c-0.452-0.446-1.065-0.691-1.7-0.68c-1.052-0.02-2.076,0.334-2.89,1
	c-0.149,0.162-0.225,0.379-0.21,0.6V176c-0.024,0.256,0.085,0.505,0.29,0.66c0.255,0.158,0.536,0.27,0.83,0.33
	c0.161,0.033,0.316,0.09,0.46,0.17c0.089,0.051,0.143,0.146,0.14,0.25c0,0.189-0.17,0.29-0.52,0.29
	c-0.375-0.002-0.75-0.035-1.12-0.101h-1c-0.333-0.021-0.667-0.021-1,0c-0.371,0.061-0.745,0.087-1.12,0.08
	C142.193,177.641,142,177.523,142,177.33z"/>
<path fill="#FFFFFF" d="M173.7,177.23c-0.78-0.445-1.426-1.091-1.87-1.871c-0.465-0.815-0.703-1.74-0.689-2.68
	c0.01-0.987,0.274-1.955,0.77-2.81c0.498-0.906,1.213-1.676,2.08-2.24c0.844-0.563,1.836-0.863,2.85-0.86
	c0.949-0.008,1.881,0.241,2.7,0.721c0.802,0.462,1.47,1.123,1.94,1.92c0.468,0.782,0.713,1.678,0.709,2.59
	c0.01,1.013-0.219,2.014-0.67,2.92c-0.447,0.898-1.141,1.65-2,2.17c-0.951,0.578-2.046,0.879-3.16,0.87
	C175.424,177.961,174.504,177.709,173.7,177.23z M179.54,175.7c0.401-0.972,0.579-2.021,0.521-3.07c0-0.829-0.16-1.651-0.471-2.42
	c-0.275-0.728-0.721-1.38-1.3-1.899c-0.52-0.474-1.198-0.734-1.899-0.73c-0.445-0.012-0.887,0.066-1.301,0.23
	c-0.397,0.178-0.742,0.457-1,0.81c-0.328,0.433-0.551,0.937-0.65,1.47c-0.128,0.659-0.188,1.329-0.18,2
	c-0.004,0.843,0.156,1.678,0.471,2.46c0.275,0.717,0.718,1.358,1.289,1.87c1.26,1.076,3.154,0.927,4.23-0.333
	c0.104-0.121,0.197-0.251,0.279-0.387H179.54z"/>
<path fill="#FFFFFF" d="M194.471,167.52c0.07,0.08,0.107,0.184,0.1,0.291c-0.02,0.19-0.112,0.367-0.26,0.489
	c-0.053,0.067-0.127,0.112-0.211,0.13h-0.74c-0.466,0-0.727,0.07-0.779,0.211c-0.116,0.389-0.17,0.793-0.16,1.199
	c0.006,0.844-0.189,1.677-0.57,2.43c-0.342,0.717-0.854,1.338-1.49,1.811c-0.578,0.43-1.277,0.668-2,0.68
	c-0.473,0.006-0.941-0.082-1.379-0.26c-0.288,0.141-0.551,0.326-0.78,0.55c-0.169,0.138-0.28,0.334-0.31,0.55
	c0,0.727,1.126,1.16,3.379,1.301c1.229,0.002,2.443,0.268,3.561,0.779c0.719,0.328,1.178,1.05,1.17,1.84
	c-0.021,0.934-0.321,1.839-0.859,2.601c-0.568,0.864-1.324,1.589-2.211,2.12c-0.816,0.521-1.762,0.805-2.729,0.82
	c-1.222,0.064-2.438-0.224-3.5-0.83c-0.856-0.472-1.374-1.384-1.341-2.36c-0.011-0.388,0.061-0.772,0.211-1.13
	c0.15-0.32,0.373-0.601,0.65-0.82l1-0.83l1.139-0.91c-0.627-0.078-1.227-0.305-1.75-0.66c-0.354-0.294-0.551-0.738-0.529-1.199
	c0.035-0.408,0.257-0.777,0.6-1l1-0.74c0.188-0.145,0.354-0.316,0.49-0.51c-0.612-0.352-1.131-0.846-1.51-1.44
	c-0.371-0.567-0.57-1.231-0.57-1.91c-0.012-0.749,0.205-1.485,0.62-2.11c0.414-0.623,0.982-1.13,1.649-1.469
	c0.693-0.355,1.463-0.537,2.24-0.531c0.639,0.021,1.27,0.144,1.871,0.36c0.179,0.071,0.362,0.132,0.549,0.181
	c0.309,0.088,0.623,0.158,0.94,0.209c0.27,0.02,0.54,0.02,0.81,0h1.431C194.312,167.362,194.414,167.424,194.471,167.52z
	 M191.471,179.04c-0.959-0.368-1.975-0.562-3-0.57c-0.377,0.013-0.753-0.021-1.121-0.1c-0.615,0.38-1.15,0.88-1.57,1.47
	c-0.314,0.51-0.474,1.102-0.459,1.7c0.001,0.702,0.344,1.358,0.92,1.76c0.654,0.487,1.455,0.737,2.27,0.71
	c0.878,0.045,1.746-0.201,2.471-0.699c0.435-0.342,0.777-0.784,1-1.291c0.24-0.527,0.363-1.1,0.359-1.68
	c0.008-0.571-0.332-1.09-0.859-1.31L191.471,179.04z M190.141,173c0.461-0.742,0.691-1.605,0.659-2.48
	c0.001-0.994-0.47-1.929-1.271-2.52c-0.346-0.26-0.767-0.4-1.199-0.4c-0.414,0.008-0.812,0.155-1.13,0.42
	c-0.372,0.3-0.667,0.684-0.86,1.121c-0.217,0.463-0.33,0.968-0.33,1.479c-0.002,0.571,0.113,1.136,0.34,1.66
	c0.197,0.479,0.51,0.901,0.91,1.229c0.352,0.292,0.793,0.454,1.25,0.46C189.186,173.957,189.806,173.588,190.141,173z"/>
<path fill="#FFFFFF" d="M159.65,160.74h3c0.18,0,0.289,0,0.34,0.16c0.056,0.164,0.08,0.337,0.07,0.51c0,0.4-0.184,0.6-0.551,0.6
	h-1.71c-0.052,0.018-0.099,0.045-0.14,0.08c-0.035,0.038-0.062,0.082-0.08,0.131c-0.008,0.059-0.008,0.119,0,0.18
	c-0.005,0.08-0.005,0.16,0,0.24v12.649c0,0.533,0.22,0.8,0.66,0.8h4.859c0.547,0.039,1.07-0.222,1.371-0.68
	c0.079-0.127,0.263-0.5,0.549-1.12c0.144-0.345,0.311-0.679,0.5-1c0.084-0.121,0.223-0.192,0.371-0.19
	c0.089-0.011,0.18-0.011,0.27,0c0.117,0.034,0.227,0.092,0.32,0.17c0.109,0.084,0.172,0.213,0.17,0.351
	c0,0.134-0.164,1.327-0.49,3.58c-0.011,0.092-0.031,0.183-0.061,0.271c-0.043,0.081-0.113,0.145-0.199,0.18
	c-0.134,0.064-0.281,0.096-0.43,0.09H156.66c-0.28,0-0.42-0.12-0.42-0.35c-0.018-0.162,0.065-0.316,0.21-0.391
	c0.323-0.112,0.659-0.189,1-0.23h0.22c0.365-0.088,0.606-0.437,0.561-0.81v-13.44c0.004-0.076,0.004-0.152,0-0.229
	c0.008-0.054,0.008-0.106,0-0.16c-0.02-0.044-0.051-0.083-0.09-0.11H157c-0.32,0.018-0.594-0.228-0.61-0.547
	c-0.001-0.024-0.001-0.049,0.001-0.072c0-0.414,0.159-0.62,0.479-0.62h2.819L159.65,160.74z"/>
</svg>
