<?xml version="1.0" encoding="utf-8"?>
<!-- Generator: Adobe Illustrator 16.0.3, SVG Export Plug-In . SVG Version: 6.00 Build 0)  -->
<!DOCTYPE svg PUBLIC "-//W3C//DTD SVG 1.1//EN" "http://www.w3.org/Graphics/SVG/1.1/DTD/svg11.dtd">
<svg version="1.1" id="Слой_1" xmlns="http://www.w3.org/2000/svg" xmlns:xlink="http://www.w3.org/1999/xlink" x="0px" y="0px"
	 width="300px" height="110px" viewBox="0 0 300 110" enable-background="new 0 0 300 110" xml:space="preserve">
<rect fill="#161B37" stroke="#000000" stroke-miterlimit="10" width="300" height="110"/>
<title>econlog2</title>
<path fill="#FFFFFF" d="M94,59.141c0.001-0.107,0.069-0.203,0.17-0.24c0.172-0.074,0.354-0.125,0.54-0.15
	c0.442-0.05,0.862-0.223,1.21-0.5c0.252-0.308,0.368-0.705,0.32-1.1V47.5c0.034-0.386-0.076-0.771-0.31-1.08
	c-0.326-0.281-0.731-0.452-1.16-0.49C94.257,45.843,94,45.703,94,45.51s0.207-0.273,0.62-0.24h8.58c0.24,0,0.37,0.063,0.39,0.19
	c0.02,0.127,0.083,0.46,0.19,1c0.083,0.415,0.129,0.837,0.14,1.26c0,0.214-0.1,0.32-0.3,0.32c-0.048,0.019-0.102,0.019-0.15,0
	c-0.039-0.05-0.066-0.108-0.08-0.17c-0.034-0.193-0.091-0.381-0.17-0.56c-0.05-0.228-0.153-0.44-0.3-0.62
	c-0.367-0.396-0.891-0.608-1.43-0.58h-2.8c-0.181,0.017-0.353,0.09-0.49,0.21c-0.168,0.104-0.273,0.284-0.28,0.48v4.53
	c-0.002,0.121,0.041,0.238,0.12,0.33c0.064,0.085,0.164,0.137,0.27,0.14h2.12c0.289,0.028,0.579-0.046,0.82-0.21
	c0.202-0.234,0.339-0.517,0.4-0.82c0.087-0.313,0.217-0.47,0.39-0.47c0.071,0.008,0.136,0.044,0.18,0.1
	c0.066,0.066,0.102,0.157,0.1,0.25v3.15c0,0.24-0.063,0.36-0.19,0.36c-0.126,0-0.29-0.227-0.49-0.68
	c-0.05-0.273-0.17-0.528-0.35-0.74c-0.169-0.16-0.398-0.24-0.63-0.22h-2c-0.197-0.016-0.394,0.022-0.57,0.11
	C98.013,52.737,97.981,52.87,98,53v4.12c-0.141,0.647,0.269,1.286,0.917,1.429c0.166,0.035,0.337,0.036,0.503,0.001H101
	c0.403-0.003,0.805-0.043,1.2-0.12c0.288-0.041,0.566-0.136,0.82-0.279c0.231-0.16,0.431-0.359,0.59-0.59
	c0.232-0.34,0.442-0.694,0.63-1.061c0.1-0.189,0.2-0.28,0.3-0.28c0.156,0.015,0.275,0.144,0.28,0.3
	c-0.04,0.397-0.121,0.789-0.24,1.17c-0.11,0.451-0.253,0.893-0.43,1.32l-0.07,0.15c-0.023,0.059-0.057,0.113-0.1,0.16
	c-0.045,0.018-0.095,0.018-0.14,0L100,59.33c-0.987-0.047-1.963-0.07-2.93-0.07c-0.371,0.001-0.742,0.024-1.11,0.07l-1.35,0.07
	C94.203,59.387,94,59.3,94,59.141z"/>
<path fill="#FFFFFF" d="M107.34,59c-0.582-0.369-1.055-0.887-1.37-1.5c-0.338-0.662-0.506-1.396-0.49-2.14
	c-0.001-0.861,0.208-1.708,0.61-2.47c0.386-0.738,0.954-1.364,1.65-1.82c0.675-0.449,1.469-0.686,2.28-0.68
	c0.882-0.021,1.748,0.242,2.47,0.75c0.145,0.084,0.241,0.233,0.26,0.4c-0.021,0.229-0.137,0.44-0.32,0.58
	c-0.155,0.172-0.37,0.279-0.6,0.3c-0.076-0.001-0.149-0.026-0.21-0.07l-0.3-0.19c-0.348-0.265-0.715-0.502-1.1-0.71
	c-0.279-0.171-0.594-0.274-0.92-0.3c-0.685,0.029-1.308,0.406-1.65,1c-0.463,0.767-0.69,1.655-0.65,2.55
	c-0.006,0.629,0.142,1.251,0.43,1.81c0.27,0.528,0.678,0.975,1.18,1.29c0.493,0.313,1.066,0.478,1.65,0.47
	c0.376,0.018,0.752-0.047,1.1-0.189c0.375-0.178,0.713-0.422,1-0.721c0.053-0.062,0.128-0.102,0.21-0.109
	c0.066-0.002,0.129,0.028,0.17,0.08c0.021,0.068,0.021,0.142,0,0.21c-0.039,0.25-0.15,0.483-0.32,0.67
	c-0.351,0.441-0.809,0.786-1.33,1c-0.563,0.237-1.169,0.356-1.78,0.351C108.613,59.57,107.928,59.375,107.34,59z"/>
<path fill="#FFFFFF" d="M115.87,59c-0.631-0.37-1.152-0.902-1.51-1.54c-0.38-0.674-0.573-1.437-0.56-2.21
	c-0.008-0.795,0.185-1.579,0.56-2.28c0.413-0.749,1.003-1.384,1.72-1.85c0.712-0.477,1.553-0.724,2.41-0.71
	c0.783-0.008,1.553,0.196,2.23,0.59c0.661,0.38,1.211,0.924,1.6,1.58c0.365,0.625,0.558,1.336,0.56,2.06
	c0.016,0.833-0.166,1.66-0.53,2.41c-0.37,0.741-0.941,1.362-1.65,1.79c-0.8,0.467-1.714,0.702-2.64,0.68
	C117.297,59.546,116.541,59.366,115.87,59z M120.69,57.74c0.332-0.801,0.479-1.665,0.43-2.53c0-0.686-0.133-1.365-0.39-2
	c-0.226-0.602-0.592-1.14-1.07-1.57c-0.43-0.39-0.99-0.604-1.57-0.6c-0.366-0.01-0.729,0.055-1.07,0.19
	c-0.327,0.149-0.609,0.38-0.82,0.67c-0.271,0.356-0.457,0.771-0.54,1.21c-0.106,0.543-0.157,1.096-0.15,1.65
	c0.001,0.686,0.134,1.365,0.39,2c0.231,0.612,0.609,1.158,1.1,1.59c1.035,0.89,2.594,0.771,3.483-0.264
	c0.088-0.102,0.167-0.211,0.237-0.326L120.69,57.74z"/>
<path fill="#FFFFFF" d="M124.13,59.1c-0.01-0.086,0.034-0.169,0.11-0.209c0.126-0.057,0.257-0.104,0.39-0.141
	c0.241-0.049,0.471-0.141,0.68-0.27c0.167-0.127,0.258-0.331,0.24-0.541v-4.6c0.01-0.339-0.041-0.678-0.15-1
	c-0.12-0.258-0.359-0.441-0.64-0.49c-0.129-0.029-0.218-0.148-0.21-0.28c0-0.16,0.07-0.24,0.19-0.26
	c0.393-0.095,0.773-0.239,1.13-0.43c0.346-0.203,0.68-0.427,1-0.67c0.067-0.059,0.151-0.098,0.24-0.11c0.07,0,0.11,0,0.11,0.15v0.45
	c0.011,0.14,0.011,0.28,0,0.42v0.76c0.479-0.457,1.039-0.823,1.65-1.08c0.586-0.241,1.216-0.36,1.85-0.35
	c0.67-0.011,1.307,0.292,1.72,0.82c0.469,0.605,0.713,1.354,0.69,2.12V58c-0.013,0.189,0.07,0.373,0.22,0.49
	c0.221,0.123,0.456,0.221,0.7,0.29c0.132,0.038,0.26,0.093,0.38,0.159c0.076,0.047,0.122,0.131,0.12,0.221
	c0,0.13-0.14,0.189-0.43,0.189c-0.308,0.004-0.616-0.02-0.92-0.069h-0.82c-0.273-0.02-0.547-0.02-0.82,0
	c-0.311,0.05-0.625,0.073-0.94,0.069c-0.29,0-0.43-0.069-0.43-0.189c-0.002-0.09,0.043-0.174,0.12-0.221
	c0.117-0.066,0.241-0.12,0.37-0.159c0.244-0.069,0.479-0.167,0.7-0.29c0.164-0.125,0.248-0.326,0.22-0.53v-4.52
	c0.027-0.538-0.164-1.064-0.53-1.46c-0.375-0.362-0.878-0.563-1.4-0.56c-0.865-0.017-1.708,0.274-2.38,0.82
	c-0.12,0.134-0.182,0.31-0.17,0.49V58c-0.019,0.209,0.072,0.413,0.24,0.54c0.209,0.13,0.439,0.221,0.68,0.271
	c0.133,0.027,0.261,0.074,0.38,0.14c0.077,0.042,0.123,0.122,0.12,0.21c0,0.16-0.14,0.24-0.43,0.24
	c-0.308-0.001-0.616-0.027-0.92-0.08h-0.82c-0.273-0.019-0.547-0.019-0.82,0c-0.304,0.05-0.612,0.073-0.92,0.07
	C124.297,59.356,124.13,59.26,124.13,59.1z"/>
<path fill="#FFFFFF" d="M150.28,59c-0.642-0.365-1.174-0.898-1.54-1.54c-0.384-0.673-0.58-1.436-0.57-2.21
	c0.006-0.815,0.223-1.614,0.63-2.32c0.413-0.749,1.003-1.385,1.72-1.85c0.695-0.465,1.514-0.712,2.351-0.71
	c0.782-0.008,1.554,0.196,2.229,0.59c0.661,0.38,1.213,0.924,1.601,1.58c0.389,0.646,0.593,1.386,0.59,2.14
	c0.009,0.835-0.179,1.662-0.55,2.41c-0.369,0.741-0.941,1.361-1.65,1.79c-0.787,0.476-1.689,0.725-2.609,0.72
	C151.706,59.604,150.945,59.396,150.28,59z M155.1,57.74c0.332-0.801,0.479-1.665,0.43-2.53c0-0.686-0.132-1.365-0.389-2
	c-0.227-0.602-0.594-1.14-1.07-1.57c-0.43-0.39-0.99-0.604-1.57-0.6c-0.365-0.01-0.73,0.055-1.07,0.19
	c-0.326,0.149-0.609,0.38-0.82,0.67c-0.271,0.356-0.456,0.771-0.54,1.21c-0.106,0.543-0.156,1.096-0.15,1.65
	c0.001,0.686,0.133,1.365,0.39,2c0.227,0.59,0.59,1.117,1.06,1.54c1.034,0.89,2.595,0.771,3.483-0.264
	c0.088-0.103,0.166-0.211,0.236-0.326L155.1,57.74z"/>
<path fill="#FFFFFF" d="M167.41,51c0.059,0.065,0.088,0.152,0.08,0.24c-0.016,0.155-0.091,0.299-0.211,0.4
	c-0.041,0.055-0.102,0.094-0.17,0.11H166.5c-0.387,0-0.6,0.057-0.641,0.17c-0.096,0.324-0.139,0.662-0.129,1
	c0.004,0.694-0.158,1.38-0.471,2c-0.289,0.597-0.723,1.112-1.26,1.5c-0.478,0.355-1.055,0.551-1.65,0.561
	c-0.39,0.006-0.777-0.065-1.14-0.211c-0.235,0.115-0.452,0.268-0.64,0.45c-0.141,0.112-0.233,0.272-0.26,0.45
	c0,0.6,0.93,0.957,2.789,1.07c1.016,0,2.018,0.218,2.94,0.64c0.608,0.261,1.001,0.858,1,1.521c-0.019,0.768-0.267,1.513-0.71,2.14
	c-0.467,0.713-1.09,1.312-1.82,1.75c-0.672,0.431-1.451,0.667-2.25,0.68c-1.008,0.056-2.012-0.181-2.89-0.68
	c-0.704-0.392-1.13-1.145-1.101-1.95c-0.01-0.318,0.049-0.636,0.17-0.93c0.125-0.266,0.311-0.498,0.541-0.68l0.819-0.681l0.94-0.75
	c-0.516-0.063-1.01-0.249-1.44-0.54c-0.298-0.244-0.46-0.615-0.44-1c0.031-0.334,0.211-0.635,0.49-0.82l0.82-0.609
	c0.153-0.12,0.288-0.262,0.4-0.42c-0.508-0.289-0.937-0.698-1.25-1.19c-0.306-0.466-0.469-1.012-0.471-1.57
	c-0.01-0.618,0.168-1.225,0.51-1.74c0.342-0.514,0.811-0.931,1.361-1.21c0.572-0.293,1.206-0.444,1.85-0.44
	c0.525,0.019,1.045,0.12,1.539,0.3c0.147,0.059,0.298,0.109,0.451,0.15c0.256,0.072,0.516,0.129,0.779,0.17
	c0.223,0.016,0.447,0.016,0.67,0h1.18C167.279,50.88,167.361,50.925,167.41,51z M164.939,60.5c-0.788-0.303-1.625-0.462-2.469-0.47
	c-0.31,0.011-0.618-0.017-0.921-0.08c-0.506,0.313-0.944,0.725-1.29,1.21c-0.259,0.42-0.391,0.906-0.38,1.4
	c0.001,0.578,0.285,1.119,0.761,1.449c0.539,0.4,1.197,0.608,1.869,0.59c0.712,0.027,1.414-0.176,2-0.58
	c0.357-0.279,0.639-0.645,0.82-1.06c0.199-0.437,0.303-0.91,0.3-1.39c0.007-0.472-0.274-0.9-0.71-1.08L164.939,60.5z M163.84,55.5
	c0.371-0.6,0.559-1.295,0.54-2c0.013-0.812-0.358-1.583-1-2.08c-0.288-0.216-0.64-0.332-1-0.33c-0.341,0.007-0.669,0.13-0.93,0.35
	c-0.307,0.246-0.55,0.561-0.71,0.92c-0.179,0.382-0.271,0.798-0.27,1.22c-0.003,0.471,0.092,0.938,0.279,1.37
	c0.164,0.39,0.422,0.733,0.75,1c0.281,0.233,0.634,0.368,1,0.38c0.564-0.021,1.076-0.341,1.34-0.84V55.5z"/>
<g id="Home">
	<g id="Econlib-Home---Desktop-Wide">
		<g id="Subnav">
			<g id="EconLog">
				<g id="EconLo">
					<path id="Fill-1" fill="#FFFFFF" d="M194.08,68.141V54.36c1.291-0.345,2.059-1.671,1.713-2.963
						c-0.346-1.291-1.672-2.058-2.963-1.713s-2.059,1.672-1.713,2.963c0.224,0.836,0.877,1.49,1.713,1.713v13.781
						c-2.77-5.58-9.141-15.771-10.67-18.181c4.119-3.3,5.49-11.79,5.77-14.08h11c0.291,2.29,1.65,10.8,5.771,14.08
						c-1.521,2.42-7.89,12.601-10.72,18.181 M205.88,49.26c-4.63-3-5.771-14-5.771-14.08c-0.03-0.319-0.299-0.562-0.619-0.56h-12.12
						c-0.32-0.001-0.589,0.241-0.62,0.56c0,0.12-1.16,11.06-5.77,14.08c-0.268,0.182-0.351,0.539-0.19,0.82l0,0
						c0.12,0.17,11.17,17.6,12.06,21.25c-0.002,0.023-0.002,0.047,0,0.07l0,0l0.061,0.1l0,0l0.061,0.07l0,0h0.059h0.681h0.06l0,0
						l0.061-0.07l0,0l0.061-0.1l0,0c0.92-3.65,12-21.101,12.06-21.25c0.162-0.278,0.084-0.635-0.181-0.82l0,0"/>
					<path id="Fill-3" fill="#FFFFFF" d="M197.311,37.81h-7.73c-0.348-0.019-0.645,0.249-0.662,0.596
						c-0.018,0.318,0.207,0.6,0.521,0.654h7.86c0.348,0.018,0.644-0.249,0.663-0.596c0.016-0.319-0.208-0.6-0.523-0.654h-0.14"/>
					<path id="Fill-5" fill="#FFFFFF" d="M197.311,40.46h-7.73c-0.346,0-0.625,0.28-0.625,0.625s0.279,0.625,0.625,0.625l0,0h7.72
						c0.345,0,0.625-0.28,0.625-0.625s-0.28-0.625-0.625-0.625"/>
				</g>
			</g>
		</g>
	</g>
</g>
<path fill="#FFFFFF" d="M138.7,45.42h2.47c0.15,0,0.24,0,0.28,0.13c0.046,0.135,0.067,0.278,0.06,0.42c0,0.327-0.15,0.49-0.45,0.49
	h-1.41c-0.044,0.015-0.085,0.039-0.12,0.07c-0.03,0.032-0.054,0.069-0.07,0.11c-0.007,0.05-0.007,0.1,0,0.15
	c-0.004,0.066-0.004,0.133,0,0.2v10.43c0,0.439,0.18,0.66,0.54,0.66h4c0.45,0.031,0.882-0.184,1.13-0.561
	c0.067-0.106,0.217-0.413,0.45-0.92c0.117-0.282,0.254-0.557,0.41-0.819c0.069-0.104,0.186-0.164,0.31-0.16h0.22
	c0.095,0.028,0.184,0.076,0.26,0.14c0.091,0.068,0.144,0.177,0.14,0.29c0,0.106-0.133,1.106-0.4,3c0.007,0.073,0.007,0.147,0,0.22
	c-0.034,0.068-0.091,0.121-0.16,0.15c-0.109,0.052-0.229,0.076-0.35,0.07h-9.74c-0.23,0-0.35-0.1-0.35-0.29
	c-0.015-0.132,0.053-0.259,0.17-0.32c0.266-0.093,0.541-0.156,0.82-0.19h0.18c0.302-0.073,0.5-0.361,0.46-0.67V46.89
	c0.004-0.063,0.004-0.127,0-0.19c0.007-0.043,0.007-0.087,0-0.13c-0.015-0.036-0.039-0.067-0.07-0.09h-1
	c-0.265,0-0.48-0.215-0.48-0.48c0-0.34,0.133-0.51,0.4-0.51h2.33L138.7,45.42z"/>
</svg>
